<?xml version="1.0" encoding="utf-8"?>
<!-- Generator: Adobe Illustrator 27.6.1, SVG Export Plug-In . SVG Version: 6.00 Build 0)  -->
<svg version="1.1" id="Layer_1" xmlns="http://www.w3.org/2000/svg" xmlns:xlink="http://www.w3.org/1999/xlink" x="0px" y="0px"
	 viewBox="0 0 100 100" style="enable-background:new 0 0 100 100;" xml:space="preserve">
<style type="text/css">
	.st0{fill:#DE3A3A;}
</style>
<g>
	<g>
		<path class="st0" d="M41,17.29c1.4-0.39,2.84-0.72,4.32-0.92c7.91-1.1,14.51-0.41,20.89,3.36l10.18-8.94
			c-9.32-6.28-20.9-9.28-32.91-7.61c-5.43,0.76-10.52,2.42-15.13,4.8L41,17.29z"/>
		<path class="st0" d="M82.45,59.91l7.2,8.26l2.4,3.4c4.3-8.36,6.16-18.08,4.77-28.1c-1.37-9.83-5.67-18.52-11.89-25.33l-8.54,10.46
			c3.33,4.45,6.43,10.81,7.25,16.71C84.34,50.38,83.86,55.32,82.45,59.91z"/>
		<path class="st0" d="M83.41,78.98l-7.84-6.67c-5.19,5.95-12.44,10.15-20.88,11.32c-18.58,2.59-35.73-10.37-38.32-28.95
			c-1.15-8.26,0.79-16.23,4.91-22.77l-11.8-6.23C4.1,34.62,1.63,45.39,3.18,56.52c3.6,25.86,27.49,43.9,53.34,40.29
			c11.8-1.65,21.97-7.52,29.2-15.88L83.41,78.98z"/>
	</g>
	<g>
		<path d="M97.22,85.84L76.78,57.28L62.33,40.91l12.73-15.66L93,3.07c0.15-0.19-0.1-0.45-0.29-0.29L68.46,20.65L54.82,33.09
			L39.79,19.07L26.07,9.12c-2.54-2.75-5.23-1.2-7.77,1.54l-5.01,5.42c-2.57,2.78-3.43,5.91-0.28,7.88l16.25,8.46L44.75,43.4
			l-9.03,10l-8.65,12.27c-2.35,2.24-1.16,4.75,1.03,7.16l4.32,4.75c2.22,2.44,4.78,3.32,6.5,0.49l7.5-14.63l8.5-12.32l17.08,14.32
			l24.9,20.77C97.13,86.37,97.4,86.06,97.22,85.84z"/>
	</g>
</g>
</svg>
