<?xml version="1.0" encoding="utf-8"?>
<!-- Generator: Adobe Illustrator 27.6.1, SVG Export Plug-In . SVG Version: 6.00 Build 0)  -->
<svg version="1.1" id="Layer_1" xmlns="http://www.w3.org/2000/svg" xmlns:xlink="http://www.w3.org/1999/xlink" x="0px" y="0px"
	 viewBox="0 0 100 100" style="enable-background:new 0 0 100 100;" xml:space="preserve">
<style type="text/css">
	.st0{fill:#8CC63F;}
</style>
<g>
	<g>
		<path class="st0" d="M76.85,34.12c2.54,4.71,3.99,10.12,3.99,15.88c0,18.16-14.34,32.88-32.02,32.88S16.78,68.16,16.78,50
			c0-18.16,14.34-32.88,32.02-32.88c7.53,0,14.45,2.69,19.92,7.16l9.83-8.35C70.67,8.66,60.24,4.23,48.81,4.23
			C24.19,4.23,4.23,24.72,4.23,50s19.96,45.77,44.57,45.77S93.38,75.28,93.38,50c0-9.6-2.89-18.51-7.81-25.88L76.85,34.12z"/>
	</g>
	<g>
		<path d="M95.5,6.56l-19.36,14.3L65.72,30.4c-2.49,2.65-4.97,5.29-7.45,7.95L50.5,48l-4.07,4.15l-1.39-1.37l-7.41-9.5
			c-3.49-3.85-10.53,8.31-6.86,10.67l7.92,7.62l8.69,6.83c1.77,1.95,5.22,0.76,5.19,0.39l5.99-11.71l10.78-15.67l12.06-14.87
			L95.73,6.8C95.85,6.64,95.65,6.44,95.5,6.56z"/>
	</g>
</g>
</svg>
